<svg width="1916" height="202" viewBox="0 0 1916 202" fill="none" xmlns="http://www.w3.org/2000/svg">
<g clip-path="url(#clip0_380_152)">
<mask id="path-1-outside-1_380_152" maskUnits="userSpaceOnUse" x="115" y="43" width="1680" height="126" fill="black">
<rect fill="white" x="115" y="43" width="1680" height="126"/>
<path d="M116.838 166L157.958 46.8H186.118L227.238 166H203.558L195.078 140.4H148.998L140.358 166H116.838ZM155.238 121.2H188.838L168.998 61.84H175.078L155.238 121.2ZM240.504 166V46.8H284.984C293.091 46.8 300.238 48.2933 306.424 51.28C312.718 54.16 317.624 58.4267 321.144 64.08C324.664 69.6267 326.424 76.4 326.424 84.4C326.424 92.2933 324.611 99.0667 320.984 104.72C317.464 110.267 312.611 114.533 306.424 117.52C300.238 120.507 293.091 122 284.984 122H262.264V166H240.504ZM262.264 102.8H285.304C289.251 102.8 292.664 102.053 295.544 100.56C298.424 98.96 300.664 96.7733 302.264 94C303.864 91.2267 304.664 88.0267 304.664 84.4C304.664 80.6667 303.864 77.4667 302.264 74.8C300.664 72.0267 298.424 69.8933 295.544 68.4C292.664 66.8 289.251 66 285.304 66H262.264V102.8ZM344.254 166V46.8H388.734C396.841 46.8 403.988 48.2933 410.174 51.28C416.468 54.16 421.374 58.4267 424.894 64.08C428.414 69.6267 430.174 76.4 430.174 84.4C430.174 92.2933 428.361 99.0667 424.734 104.72C421.214 110.267 416.361 114.533 410.174 117.52C403.988 120.507 396.841 122 388.734 122H366.014V166H344.254ZM366.014 102.8H389.054C393.001 102.8 396.414 102.053 399.294 100.56C402.174 98.96 404.414 96.7733 406.014 94C407.614 91.2267 408.414 88.0267 408.414 84.4C408.414 80.6667 407.614 77.4667 406.014 74.8C404.414 72.0267 402.174 69.8933 399.294 68.4C396.414 66.8 393.001 66 389.054 66H366.014V102.8ZM532.442 167.92C523.909 167.92 516.015 166.373 508.762 163.28C501.615 160.187 495.322 155.867 489.882 150.32C484.549 144.773 480.389 138.267 477.402 130.8C474.415 123.333 472.922 115.173 472.922 106.32C472.922 97.4667 474.362 89.3067 477.242 81.84C480.229 74.2667 484.389 67.76 489.722 62.32C495.162 56.7733 501.509 52.5067 508.762 49.52C516.015 46.4267 523.909 44.88 532.442 44.88C540.975 44.88 548.602 46.32 555.322 49.2C562.149 52.08 567.909 55.92 572.602 60.72C577.295 65.4133 580.655 70.5867 582.682 76.24L563.162 85.36C560.922 79.3867 557.135 74.48 551.802 70.64C546.469 66.6933 540.015 64.72 532.442 64.72C524.975 64.72 518.362 66.48 512.602 70C506.949 73.52 502.522 78.3733 499.322 84.56C496.229 90.7467 494.682 98 494.682 106.32C494.682 114.64 496.229 121.947 499.322 128.24C502.522 134.427 506.949 139.28 512.602 142.8C518.362 146.32 524.975 148.08 532.442 148.08C540.015 148.08 546.469 146.16 551.802 142.32C557.135 138.373 560.922 133.413 563.162 127.44L582.682 136.56C580.655 142.213 577.295 147.44 572.602 152.24C567.909 156.933 562.149 160.72 555.322 163.6C548.602 166.48 540.975 167.92 532.442 167.92ZM646.268 167.92C637.095 167.92 628.935 166 621.788 162.16C614.748 158.32 609.201 153.04 605.148 146.32C601.095 139.6 599.068 131.973 599.068 123.44V46.8H620.828V122.32C620.828 127.227 621.895 131.653 624.028 135.6C626.268 139.547 629.308 142.64 633.148 144.88C636.988 147.013 641.361 148.08 646.268 148.08C651.281 148.08 655.655 147.013 659.388 144.88C663.228 142.64 666.215 139.547 668.348 135.6C670.588 131.653 671.708 127.227 671.708 122.32V46.8H693.468V123.44C693.468 131.973 691.441 139.6 687.388 146.32C683.335 153.04 677.735 158.32 670.588 162.16C663.548 166 655.441 167.92 646.268 167.92ZM757.752 167.92C750.179 167.92 743.139 166.533 736.632 163.76C730.232 160.987 724.685 157.147 719.992 152.24C715.405 147.227 712.045 141.413 709.912 134.8L727.992 126.96C730.872 133.787 735.032 139.173 740.472 143.12C745.912 146.96 752.045 148.88 758.872 148.88C762.712 148.88 766.019 148.293 768.792 147.12C771.672 145.84 773.859 144.133 775.352 142C776.952 139.867 777.752 137.307 777.752 134.32C777.752 130.8 776.685 127.92 774.552 125.68C772.525 123.333 769.432 121.52 765.272 120.24L742.392 112.88C733.112 110 726.125 105.68 721.432 99.92C716.739 94.16 714.392 87.3867 714.392 79.6C714.392 72.7733 716.045 66.7467 719.352 61.52C722.765 56.2933 727.459 52.24 733.432 49.36C739.512 46.3733 746.445 44.88 754.232 44.88C761.379 44.88 767.939 46.16 773.912 48.72C779.885 51.1733 785.005 54.64 789.272 59.12C793.645 63.4933 796.899 68.6667 799.032 74.64L781.112 82.64C778.765 76.6667 775.245 72.08 770.552 68.88C765.859 65.5733 760.419 63.92 754.232 63.92C750.605 63.92 747.405 64.56 744.632 65.84C741.859 67.0133 739.672 68.72 738.072 70.96C736.579 73.0933 735.832 75.6533 735.832 78.64C735.832 81.9467 736.899 84.88 739.032 87.44C741.165 89.8933 744.419 91.8133 748.792 93.2L770.712 100.08C780.205 103.173 787.299 107.44 791.992 112.88C796.792 118.32 799.192 125.04 799.192 133.04C799.192 139.867 797.432 145.893 793.912 151.12C790.392 156.347 785.539 160.453 779.352 163.44C773.165 166.427 765.965 167.92 757.752 167.92ZM839.906 166V66H809.026V46.8H892.226V66H861.826V166H839.906ZM959.381 167.92C950.634 167.92 942.474 166.373 934.901 163.28C927.327 160.187 920.714 155.867 915.061 150.32C909.407 144.773 904.981 138.267 901.781 130.8C898.687 123.227 897.141 115.067 897.141 106.32C897.141 97.4667 898.687 89.3067 901.781 81.84C904.874 74.3733 909.247 67.8667 914.901 62.32C920.554 56.7733 927.167 52.5067 934.741 49.52C942.314 46.4267 950.527 44.88 959.381 44.88C968.234 44.88 976.447 46.4267 984.021 49.52C991.594 52.6133 998.207 56.9333 1003.86 62.48C1009.51 67.92 1013.89 74.3733 1016.98 81.84C1020.18 89.3067 1021.78 97.4667 1021.78 106.32C1021.78 115.067 1020.18 123.227 1016.98 130.8C1013.78 138.267 1009.35 144.773 1003.7 150.32C998.047 155.867 991.434 160.187 983.861 163.28C976.394 166.373 968.234 167.92 959.381 167.92ZM959.381 148.08C965.247 148.08 970.634 147.067 975.541 145.04C980.447 142.907 984.714 139.973 988.341 136.24C992.074 132.507 994.901 128.08 996.821 122.96C998.847 117.84 999.861 112.293 999.861 106.32C999.861 100.347 998.847 94.8533 996.821 89.84C994.901 84.72 992.074 80.2933 988.341 76.56C984.714 72.72 980.447 69.7867 975.541 67.76C970.634 65.7333 965.247 64.72 959.381 64.72C953.621 64.72 948.287 65.7333 943.381 67.76C938.474 69.7867 934.154 72.72 930.421 76.56C926.794 80.2933 923.967 84.72 921.941 89.84C919.914 94.8533 918.901 100.347 918.901 106.32C918.901 112.293 919.914 117.84 921.941 122.96C923.967 128.08 926.794 132.507 930.421 136.24C934.154 139.973 938.474 142.907 943.381 145.04C948.287 147.067 953.621 148.08 959.381 148.08ZM1041.13 166V46.8H1061.93L1106.57 107.44H1096.65L1140.33 46.8H1161.13V166H1139.21V71.6L1147.69 73.68L1102.41 134H1099.85L1055.69 73.68L1062.89 71.6V166H1041.13ZM1183.94 166V46.8H1205.7V166H1183.94ZM1219.35 166V148.88L1277.11 66H1222.71V46.8H1304.79V63.92L1247.19 146.8H1306.39V166H1219.35ZM1310.28 166L1351.4 46.8H1379.56L1420.68 166H1397L1388.52 140.4H1342.44L1333.8 166H1310.28ZM1348.68 121.2H1382.28L1362.44 61.84H1368.52L1348.68 121.2ZM1447.09 166V66H1416.21V46.8H1499.41V66H1469.01V166H1447.09ZM1512.69 166V46.8H1534.45V166H1512.69ZM1616.1 167.92C1607.35 167.92 1599.19 166.373 1591.62 163.28C1584.05 160.187 1577.43 155.867 1571.78 150.32C1566.13 144.773 1561.7 138.267 1558.5 130.8C1555.41 123.227 1553.86 115.067 1553.86 106.32C1553.86 97.4667 1555.41 89.3067 1558.5 81.84C1561.59 74.3733 1565.97 67.8667 1571.62 62.32C1577.27 56.7733 1583.89 52.5067 1591.46 49.52C1599.03 46.4267 1607.25 44.88 1616.1 44.88C1624.95 44.88 1633.17 46.4267 1640.74 49.52C1648.31 52.6133 1654.93 56.9333 1660.58 62.48C1666.23 67.92 1670.61 74.3733 1673.7 81.84C1676.9 89.3067 1678.5 97.4667 1678.5 106.32C1678.5 115.067 1676.9 123.227 1673.7 130.8C1670.5 138.267 1666.07 144.773 1660.42 150.32C1654.77 155.867 1648.15 160.187 1640.58 163.28C1633.11 166.373 1624.95 167.92 1616.1 167.92ZM1616.1 148.08C1621.97 148.08 1627.35 147.067 1632.26 145.04C1637.17 142.907 1641.43 139.973 1645.06 136.24C1648.79 132.507 1651.62 128.08 1653.54 122.96C1655.57 117.84 1656.58 112.293 1656.58 106.32C1656.58 100.347 1655.57 94.8533 1653.54 89.84C1651.62 84.72 1648.79 80.2933 1645.06 76.56C1641.43 72.72 1637.17 69.7867 1632.26 67.76C1627.35 65.7333 1621.97 64.72 1616.1 64.72C1610.34 64.72 1605.01 65.7333 1600.1 67.76C1595.19 69.7867 1590.87 72.72 1587.14 76.56C1583.51 80.2933 1580.69 84.72 1578.66 89.84C1576.63 94.8533 1575.62 100.347 1575.62 106.32C1575.62 112.293 1576.63 117.84 1578.66 122.96C1580.69 128.08 1583.51 132.507 1587.14 136.24C1590.87 139.973 1595.19 142.907 1600.1 145.04C1605.01 147.067 1610.34 148.08 1616.1 148.08ZM1697.85 166V46.8H1714.81L1780.41 135.12L1771.61 136.88V46.8H1793.37V166H1776.25L1711.61 77.04L1719.61 75.28V166H1697.85Z"/>
</mask>
<path d="M116.838 166L115.893 165.674L115.435 167H116.838V166ZM157.958 46.8V45.8H157.245L157.013 46.4739L157.958 46.8ZM186.118 46.8L187.063 46.4739L186.831 45.8H186.118V46.8ZM227.238 166V167H228.641L228.183 165.674L227.238 166ZM203.558 166L202.609 166.314L202.836 167H203.558V166ZM195.078 140.4L196.027 140.086L195.8 139.4H195.078V140.4ZM148.998 140.4V139.4H148.28L148.051 140.08L148.998 140.4ZM140.358 166V167H141.076L141.306 166.32L140.358 166ZM155.238 121.2L154.29 120.883L153.85 122.2H155.238V121.2ZM188.838 121.2V122.2H190.227L189.787 120.883L188.838 121.2ZM168.998 61.84V60.84H167.61L168.05 62.157L168.998 61.84ZM175.078 61.84L176.027 62.157L176.467 60.84H175.078V61.84ZM116.838 166L117.783 166.326L158.903 47.1261L157.958 46.8L157.013 46.4739L115.893 165.674L116.838 166ZM157.958 46.8V47.8H186.118V46.8V45.8H157.958V46.8ZM186.118 46.8L185.173 47.1261L226.293 166.326L227.238 166L228.183 165.674L187.063 46.4739L186.118 46.8ZM227.238 166V165H203.558V166V167H227.238V166ZM203.558 166L204.507 165.686L196.027 140.086L195.078 140.4L194.129 140.714L202.609 166.314L203.558 166ZM195.078 140.4V139.4H148.998V140.4V141.4H195.078V140.4ZM148.998 140.4L148.051 140.08L139.411 165.68L140.358 166L141.306 166.32L149.946 140.72L148.998 140.4ZM140.358 166V165H116.838V166V167H140.358V166ZM155.238 121.2V122.2H188.838V121.2V120.2H155.238V121.2ZM188.838 121.2L189.787 120.883L169.947 61.523L168.998 61.84L168.05 62.157L187.89 121.517L188.838 121.2ZM168.998 61.84V62.84H175.078V61.84V60.84H168.998V61.84ZM175.078 61.84L174.13 61.523L154.29 120.883L155.238 121.2L156.187 121.517L176.027 62.157L175.078 61.84ZM240.504 166H239.504V167H240.504V166ZM240.504 46.8V45.8H239.504V46.8H240.504ZM306.424 51.28L305.99 52.1806L305.999 52.185L306.008 52.1893L306.424 51.28ZM321.144 64.08L320.295 64.6086L320.3 64.6158L321.144 64.08ZM320.984 104.72L320.143 104.18L320.14 104.184L320.984 104.72ZM306.424 117.52L306.859 118.421L306.859 118.421L306.424 117.52ZM262.264 122V121H261.264V122H262.264ZM262.264 166V167H263.264V166H262.264ZM262.264 102.8H261.264V103.8H262.264V102.8ZM295.544 100.56L296.005 101.448L296.017 101.441L296.03 101.434L295.544 100.56ZM302.264 94L303.131 94.4997L303.131 94.4997L302.264 94ZM302.264 74.8L301.398 75.2997L301.402 75.3071L301.407 75.3145L302.264 74.8ZM295.544 68.4L295.059 69.2742L295.071 69.2811L295.084 69.2878L295.544 68.4ZM262.264 66V65H261.264V66H262.264ZM240.504 166H241.504V46.8H240.504H239.504V166H240.504ZM240.504 46.8V47.8H284.984V46.8V45.8H240.504V46.8ZM284.984 46.8V47.8C292.967 47.8 299.961 49.2701 305.99 52.1806L306.424 51.28L306.859 50.3794C300.515 47.3166 293.215 45.8 284.984 45.8V46.8ZM306.424 51.28L306.008 52.1893C312.13 54.991 316.883 59.1286 320.295 64.6086L321.144 64.08L321.993 63.5514C318.365 57.7247 313.305 53.329 306.841 50.3707L306.424 51.28ZM321.144 64.08L320.3 64.6158C323.698 69.9705 325.424 76.5482 325.424 84.4H326.424H327.424C327.424 76.2518 325.631 69.2828 321.989 63.5442L321.144 64.08ZM326.424 84.4H325.424C325.424 92.136 323.649 98.7143 320.143 104.18L320.984 104.72L321.826 105.26C325.573 99.419 327.424 92.4506 327.424 84.4H326.424ZM320.984 104.72L320.14 104.184C316.725 109.566 312.017 113.71 305.99 116.619L306.424 117.52L306.859 118.421C313.206 115.357 318.204 110.967 321.829 105.256L320.984 104.72ZM306.424 117.52L305.99 116.619C299.961 119.53 292.967 121 284.984 121V122V123C293.215 123 300.515 121.483 306.859 118.421L306.424 117.52ZM284.984 122V121H262.264V122V123H284.984V122ZM262.264 122H261.264V166H262.264H263.264V122H262.264ZM262.264 166V165H240.504V166V167H262.264V166ZM262.264 102.8V103.8H285.304V102.8V101.8H262.264V102.8ZM285.304 102.8V103.8C289.377 103.8 292.955 103.029 296.005 101.448L295.544 100.56L295.084 99.6722C292.374 101.078 289.125 101.8 285.304 101.8V102.8ZM295.544 100.56L296.03 101.434C299.064 99.7488 301.437 97.4348 303.131 94.4997L302.264 94L301.398 93.5003C299.891 96.1119 297.785 98.1712 295.059 99.6858L295.544 100.56ZM302.264 94L303.131 94.4997C304.829 91.5551 305.664 88.1784 305.664 84.4H304.664H303.664C303.664 87.8749 302.899 90.8982 301.398 93.5003L302.264 94ZM304.664 84.4H305.664C305.664 80.5219 304.832 77.1361 303.122 74.2855L302.264 74.8L301.407 75.3145C302.896 77.7972 303.664 80.8114 303.664 84.4H304.664ZM302.264 74.8L303.131 74.3003C301.434 71.3592 299.052 69.0923 296.005 67.5122L295.544 68.4L295.084 69.2878C297.797 70.6944 299.895 72.6941 301.398 75.2997L302.264 74.8ZM295.544 68.4L296.03 67.5258C292.975 65.8284 289.387 65 285.304 65V66V67C289.115 67 292.354 67.7716 295.059 69.2742L295.544 68.4ZM285.304 66V65H262.264V66V67H285.304V66ZM262.264 66H261.264V102.8H262.264H263.264V66H262.264ZM344.254 166H343.254V167H344.254V166ZM344.254 46.8V45.8H343.254V46.8H344.254ZM410.174 51.28L409.74 52.1806L409.749 52.185L409.758 52.1893L410.174 51.28ZM424.894 64.08L424.045 64.6086L424.05 64.6158L424.894 64.08ZM424.734 104.72L423.893 104.18L423.89 104.184L424.734 104.72ZM410.174 117.52L410.609 118.421L410.609 118.421L410.174 117.52ZM366.014 122V121H365.014V122H366.014ZM366.014 166V167H367.014V166H366.014ZM366.014 102.8H365.014V103.8H366.014V102.8ZM399.294 100.56L399.755 101.448L399.767 101.441L399.78 101.434L399.294 100.56ZM406.014 94L406.881 94.4997L406.881 94.4997L406.014 94ZM406.014 74.8L405.148 75.2997L405.152 75.3071L405.157 75.3145L406.014 74.8ZM399.294 68.4L398.809 69.2742L398.821 69.2811L398.834 69.2878L399.294 68.4ZM366.014 66V65H365.014V66H366.014ZM344.254 166H345.254V46.8H344.254H343.254V166H344.254ZM344.254 46.8V47.8H388.734V46.8V45.8H344.254V46.8ZM388.734 46.8V47.8C396.717 47.8 403.711 49.2701 409.74 52.1806L410.174 51.28L410.609 50.3794C404.265 47.3166 396.965 45.8 388.734 45.8V46.8ZM410.174 51.28L409.758 52.1893C415.88 54.991 420.633 59.1286 424.045 64.6086L424.894 64.08L425.743 63.5514C422.115 57.7247 417.055 53.329 410.591 50.3707L410.174 51.28ZM424.894 64.08L424.05 64.6158C427.448 69.9705 429.174 76.5482 429.174 84.4H430.174H431.174C431.174 76.2518 429.381 69.2828 425.739 63.5442L424.894 64.08ZM430.174 84.4H429.174C429.174 92.136 427.399 98.7143 423.893 104.18L424.734 104.72L425.576 105.26C429.323 99.419 431.174 92.4506 431.174 84.4H430.174ZM424.734 104.72L423.89 104.184C420.475 109.566 415.767 113.71 409.74 116.619L410.174 117.52L410.609 118.421C416.956 115.357 421.954 110.967 425.579 105.256L424.734 104.72ZM410.174 117.52L409.74 116.619C403.711 119.53 396.717 121 388.734 121V122V123C396.965 123 404.265 121.483 410.609 118.421L410.174 117.52ZM388.734 122V121H366.014V122V123H388.734V122ZM366.014 122H365.014V166H366.014H367.014V122H366.014ZM366.014 166V165H344.254V166V167H366.014V166ZM366.014 102.8V103.8H389.054V102.8V101.8H366.014V102.8ZM389.054 102.8V103.8C393.127 103.8 396.705 103.029 399.755 101.448L399.294 100.56L398.834 99.6722C396.124 101.078 392.875 101.8 389.054 101.8V102.8ZM399.294 100.56L399.78 101.434C402.814 99.7488 405.187 97.4348 406.881 94.4997L406.014 94L405.148 93.5003C403.641 96.1119 401.535 98.1712 398.809 99.6858L399.294 100.56ZM406.014 94L406.881 94.4997C408.579 91.5551 409.414 88.1784 409.414 84.4H408.414H407.414C407.414 87.8749 406.649 90.8982 405.148 93.5003L406.014 94ZM408.414 84.4H409.414C409.414 80.5219 408.582 77.1361 406.872 74.2855L406.014 74.8L405.157 75.3145C406.646 77.7972 407.414 80.8114 407.414 84.4H408.414ZM406.014 74.8L406.881 74.3003C405.184 71.3592 402.802 69.0923 399.755 67.5122L399.294 68.4L398.834 69.2878C401.547 70.6944 403.645 72.6941 405.148 75.2997L406.014 74.8ZM399.294 68.4L399.78 67.5258C396.725 65.8284 393.137 65 389.054 65V66V67C392.865 67 396.104 67.7716 398.809 69.2742L399.294 68.4ZM389.054 66V65H366.014V66V67H389.054V66ZM366.014 66H365.014V102.8H366.014H367.014V66H366.014ZM508.762 163.28L508.365 164.198L508.37 164.2L508.762 163.28ZM489.882 150.32L489.161 151.013L489.168 151.02L489.882 150.32ZM477.402 130.8L476.473 131.171L476.473 131.171L477.402 130.8ZM477.242 81.84L476.312 81.4731L476.309 81.4801L477.242 81.84ZM489.722 62.32L489.008 61.6198L489.008 61.6199L489.722 62.32ZM508.762 49.52L509.143 50.4447L509.154 50.4398L508.762 49.52ZM555.322 49.2L554.928 50.1192L554.933 50.1214L555.322 49.2ZM572.602 60.72L571.887 61.4192L571.895 61.4271L572.602 60.72ZM582.682 76.24L583.105 77.146L583.931 76.7603L583.623 75.9025L582.682 76.24ZM563.162 85.36L562.226 85.7111L562.605 86.7238L563.585 86.266L563.162 85.36ZM551.802 70.64L551.207 71.4439L551.218 71.4515L551.802 70.64ZM512.602 70L512.08 69.1467L512.073 69.1511L512.602 70ZM499.322 84.56L498.434 84.1005L498.427 84.1128L499.322 84.56ZM499.322 128.24L498.424 128.681L498.429 128.69L498.434 128.699L499.322 128.24ZM512.602 142.8L512.073 143.649L512.08 143.653L512.602 142.8ZM551.802 142.32L552.386 143.132L552.397 143.124L551.802 142.32ZM563.162 127.44L563.585 126.534L562.605 126.076L562.226 127.089L563.162 127.44ZM582.682 136.56L583.623 136.897L583.931 136.04L583.105 135.654L582.682 136.56ZM572.602 152.24L573.309 152.947L573.317 152.939L572.602 152.24ZM555.322 163.6L554.933 162.679L554.928 162.681L555.322 163.6ZM532.442 167.92V166.92C524.032 166.92 516.274 165.396 509.154 162.36L508.762 163.28L508.37 164.2C515.757 167.35 523.785 168.92 532.442 168.92V167.92ZM508.762 163.28L509.159 162.362C502.131 159.32 495.945 155.074 490.596 149.62L489.882 150.32L489.168 151.02C494.699 156.659 501.1 161.053 508.365 164.198L508.762 163.28ZM489.882 150.32L490.603 149.627C485.363 144.177 481.271 137.781 478.33 130.429L477.402 130.8L476.473 131.171C479.506 138.752 483.734 145.369 489.161 151.013L489.882 150.32ZM477.402 130.8L478.33 130.429C475.395 123.091 473.922 115.059 473.922 106.32H472.922H471.922C471.922 115.288 473.435 123.575 476.473 131.171L477.402 130.8ZM472.922 106.32H473.922C473.922 97.5767 475.344 89.5401 478.175 82.1999L477.242 81.84L476.309 81.4801C473.38 89.0732 471.922 97.3567 471.922 106.32H472.922ZM477.242 81.84L478.172 82.2069C481.113 74.7493 485.203 68.3582 490.436 63.0201L489.722 62.32L489.008 61.6199C483.575 67.1618 479.344 73.784 476.312 81.4731L477.242 81.84ZM489.722 62.32L490.436 63.0202C495.78 57.5711 502.013 53.3803 509.143 50.4447L508.762 49.52L508.381 48.5953C501.004 51.633 494.544 55.9756 489.008 61.6198L489.722 62.32ZM508.762 49.52L509.154 50.4398C516.274 47.4036 524.032 45.88 532.442 45.88V44.88V43.88C523.785 43.88 515.757 45.4497 508.37 48.6001L508.762 49.52ZM532.442 44.88V45.88C540.862 45.88 548.351 47.3006 554.928 50.1191L555.322 49.2L555.716 48.2809C548.852 45.3393 541.088 43.88 532.442 43.88V44.88ZM555.322 49.2L554.933 50.1214C561.65 52.9551 567.296 56.7236 571.887 61.4191L572.602 60.72L573.317 60.0209C568.521 55.1164 562.647 51.2049 555.711 48.2786L555.322 49.2ZM572.602 60.72L571.895 61.4271C576.495 66.0271 579.769 71.0772 581.741 76.5775L582.682 76.24L583.623 75.9025C581.542 70.0962 578.096 64.7995 573.309 60.0129L572.602 60.72ZM582.682 76.24L582.259 75.334L562.739 84.454L563.162 85.36L563.585 86.266L583.105 77.146L582.682 76.24ZM563.162 85.36L564.098 85.0089C561.787 78.8449 557.875 73.7801 552.386 69.8285L551.802 70.64L551.218 71.4515C556.396 75.1799 560.057 79.9285 562.226 85.7111L563.162 85.36ZM551.802 70.64L552.397 69.8362C546.867 65.7445 540.198 63.72 532.442 63.72V64.72V65.72C539.833 65.72 546.07 67.6422 551.207 71.4438L551.802 70.64ZM532.442 64.72V63.72C524.811 63.72 518.014 65.5208 512.08 69.1467L512.602 70L513.123 70.8533C518.71 67.4392 525.139 65.72 532.442 65.72V64.72ZM512.602 70L512.073 69.1511C506.26 72.7707 501.712 77.7617 498.434 84.1006L499.322 84.56L500.21 85.0194C503.331 78.9849 507.637 74.2693 513.13 70.8489L512.602 70ZM499.322 84.56L498.427 84.1128C495.252 90.4637 493.682 97.8759 493.682 106.32H494.682H495.682C495.682 98.1241 497.205 91.0296 500.216 85.0072L499.322 84.56ZM494.682 106.32H493.682C493.682 114.765 495.252 122.227 498.424 128.681L499.322 128.24L500.219 127.799C497.205 121.666 495.682 114.515 495.682 106.32H494.682ZM499.322 128.24L498.434 128.699C501.712 135.038 506.26 140.029 512.073 143.649L512.602 142.8L513.13 141.951C507.637 138.531 503.331 133.815 500.21 127.781L499.322 128.24ZM512.602 142.8L512.08 143.653C518.014 147.279 524.811 149.08 532.442 149.08V148.08V147.08C525.139 147.08 518.71 145.361 513.123 141.947L512.602 142.8ZM532.442 148.08V149.08C540.192 149.08 546.858 147.112 552.386 143.132L551.802 142.32L551.218 141.508C546.079 145.208 539.839 147.08 532.442 147.08V148.08ZM551.802 142.32L552.397 143.124C557.879 139.067 561.788 133.953 564.098 127.791L563.162 127.44L562.226 127.089C560.056 132.874 556.392 137.679 551.207 141.516L551.802 142.32ZM563.162 127.44L562.739 128.346L582.259 137.466L582.682 136.56L583.105 135.654L563.585 126.534L563.162 127.44ZM582.682 136.56L581.741 136.223C579.768 141.725 576.492 146.832 571.887 151.541L572.602 152.24L573.317 152.939C578.099 148.048 581.543 142.701 583.623 136.897L582.682 136.56ZM572.602 152.24L571.895 151.533C567.303 156.125 561.655 159.843 554.933 162.679L555.322 163.6L555.711 164.521C562.642 161.597 568.514 157.742 573.309 152.947L572.602 152.24ZM555.322 163.6L554.928 162.681C548.351 165.499 540.862 166.92 532.442 166.92V167.92V168.92C541.088 168.92 548.852 167.461 555.716 164.519L555.322 163.6ZM621.788 162.16L621.309 163.038L621.315 163.041L621.788 162.16ZM605.148 146.32L606.004 145.804L606.004 145.804L605.148 146.32ZM599.068 46.8V45.8H598.068V46.8H599.068ZM620.828 46.8H621.828V45.8H620.828V46.8ZM624.028 135.6L623.148 136.076L623.153 136.085L623.158 136.094L624.028 135.6ZM633.148 144.88L632.644 145.744L632.653 145.749L632.662 145.754L633.148 144.88ZM659.388 144.88L659.884 145.748L659.892 145.744L659.388 144.88ZM668.348 135.6L667.478 135.106L667.473 135.115L667.468 135.124L668.348 135.6ZM671.708 46.8V45.8H670.708V46.8H671.708ZM693.468 46.8H694.468V45.8H693.468V46.8ZM687.388 146.32L688.244 146.836L688.244 146.836L687.388 146.32ZM670.588 162.16L670.115 161.279L670.109 161.282L670.588 162.16ZM646.268 167.92V166.92C637.238 166.92 629.244 165.031 622.261 161.279L621.788 162.16L621.315 163.041C628.625 166.969 636.951 168.92 646.268 168.92V167.92ZM621.788 162.16L622.267 161.282C615.379 157.525 609.964 152.368 606.004 145.804L605.148 146.32L604.292 146.836C608.439 153.712 614.117 159.115 621.309 163.038L621.788 162.16ZM605.148 146.32L606.004 145.804C602.053 139.253 600.068 131.808 600.068 123.44H599.068H598.068C598.068 132.139 600.136 139.947 604.292 146.836L605.148 146.32ZM599.068 123.44H600.068V46.8H599.068H598.068V123.44H599.068ZM599.068 46.8V47.8H620.828V46.8V45.8H599.068V46.8ZM620.828 46.8H619.828V122.32H620.828H621.828V46.8H620.828ZM620.828 122.32H619.828C619.828 127.377 620.929 131.969 623.148 136.076L624.028 135.6L624.908 135.124C622.861 131.337 621.828 127.077 621.828 122.32H620.828ZM624.028 135.6L623.158 136.094C625.484 140.19 628.648 143.413 632.644 145.744L633.148 144.88L633.652 144.016C629.968 141.867 627.053 138.903 624.898 135.106L624.028 135.6ZM633.148 144.88L632.662 145.754C636.668 147.979 641.212 149.08 646.268 149.08V148.08V147.08C641.511 147.08 637.308 146.047 633.634 144.006L633.148 144.88ZM646.268 148.08V149.08C651.426 149.08 655.976 147.981 659.884 145.748L659.388 144.88L658.892 144.012C655.333 146.045 651.137 147.08 646.268 147.08V148.08ZM659.388 144.88L659.892 145.744C663.892 143.41 667.008 140.182 669.228 136.076L668.348 135.6L667.468 135.124C665.422 138.911 662.564 141.87 658.884 144.016L659.388 144.88ZM668.348 135.6L669.218 136.094C671.55 131.984 672.708 127.385 672.708 122.32H671.708H670.708C670.708 127.068 669.626 131.322 667.478 135.106L668.348 135.6ZM671.708 122.32H672.708V46.8H671.708H670.708V122.32H671.708ZM671.708 46.8V47.8H693.468V46.8V45.8H671.708V46.8ZM693.468 46.8H692.468V123.44H693.468H694.468V46.8H693.468ZM693.468 123.44H692.468C692.468 131.808 690.483 139.253 686.532 145.804L687.388 146.32L688.244 146.836C692.4 139.947 694.468 132.139 694.468 123.44H693.468ZM687.388 146.32L686.532 145.804C682.574 152.365 677.109 157.521 670.115 161.279L670.588 162.16L671.061 163.041C678.361 159.119 684.095 153.715 688.244 146.836L687.388 146.32ZM670.588 162.16L670.109 161.282C663.236 165.031 655.298 166.92 646.268 166.92V167.92V168.92C655.584 168.92 663.86 166.969 671.067 163.038L670.588 162.16ZM736.632 163.76L736.234 164.678L736.24 164.68L736.632 163.76ZM719.992 152.24L719.254 152.915L719.262 152.923L719.269 152.931L719.992 152.24ZM709.912 134.8L709.514 133.883L708.682 134.244L708.96 135.107L709.912 134.8ZM727.992 126.96L728.913 126.571L728.521 125.641L727.594 126.043L727.992 126.96ZM740.472 143.12L739.885 143.929L739.895 143.937L740.472 143.12ZM768.792 147.12L769.182 148.041L769.19 148.037L769.198 148.034L768.792 147.12ZM775.352 142L774.552 141.4L774.542 141.413L774.533 141.427L775.352 142ZM774.552 125.68L773.795 126.334L773.811 126.352L773.828 126.37L774.552 125.68ZM765.272 120.24L764.966 121.192L764.978 121.196L765.272 120.24ZM742.392 112.88L742.698 111.928L742.688 111.925L742.392 112.88ZM721.432 99.92L722.207 99.2883L722.207 99.2883L721.432 99.92ZM719.352 61.52L718.515 60.9732L718.511 60.9792L718.507 60.9853L719.352 61.52ZM733.432 49.36L733.866 50.2608L733.873 50.2575L733.432 49.36ZM773.912 48.72L773.518 49.6391L773.525 49.6421L773.532 49.645L773.912 48.72ZM789.272 59.12L788.548 59.8096L788.556 59.8185L788.565 59.8271L789.272 59.12ZM799.032 74.64L799.44 75.5531L800.285 75.1757L799.974 74.3037L799.032 74.64ZM781.112 82.64L780.181 83.0056L780.564 83.9798L781.52 83.5531L781.112 82.64ZM770.552 68.88L769.976 69.6975L769.982 69.7019L769.989 69.7062L770.552 68.88ZM744.632 65.84L745.022 66.761L745.036 66.7547L745.051 66.748L744.632 65.84ZM738.072 70.96L737.258 70.3787L737.253 70.3865L738.072 70.96ZM739.032 87.44L738.264 88.0802L738.27 88.0882L738.277 88.0962L739.032 87.44ZM748.792 93.2L748.49 94.1532L748.492 94.1541L748.792 93.2ZM770.712 100.08L771.022 99.1291L771.011 99.1259L770.712 100.08ZM791.992 112.88L791.235 113.533L791.242 113.542L791.992 112.88ZM793.912 151.12L794.741 151.679L794.741 151.679L793.912 151.12ZM779.352 163.44L779.787 164.341L779.787 164.341L779.352 163.44ZM757.752 167.92V166.92C750.304 166.92 743.398 165.557 737.024 162.84L736.632 163.76L736.24 164.68C742.879 167.51 750.053 168.92 757.752 168.92V167.92ZM736.632 163.76L737.029 162.842C730.748 160.121 725.313 156.356 720.715 151.549L719.992 152.24L719.269 152.931C724.057 157.937 729.715 161.853 736.234 164.678L736.632 163.76ZM719.992 152.24L720.73 151.565C716.242 146.66 712.954 140.973 710.864 134.493L709.912 134.8L708.96 135.107C711.137 141.854 714.568 147.793 719.254 152.915L719.992 152.24ZM709.912 134.8L710.31 135.717L728.39 127.877L727.992 126.96L727.594 126.043L709.514 133.883L709.912 134.8ZM727.992 126.96L727.071 127.349C730.014 134.326 734.282 139.865 739.885 143.929L740.472 143.12L741.059 142.311C735.782 138.482 731.73 133.248 728.913 126.571L727.992 126.96ZM740.472 143.12L739.895 143.937C745.508 147.899 751.844 149.88 758.872 149.88V148.88V147.88C752.246 147.88 746.315 146.021 741.049 142.303L740.472 143.12ZM758.872 148.88V149.88C762.81 149.88 766.256 149.279 769.182 148.041L768.792 147.12L768.402 146.199C765.781 147.308 762.613 147.88 758.872 147.88V148.88ZM768.792 147.12L769.198 148.034C772.209 146.696 774.554 144.884 776.171 142.573L775.352 142L774.533 141.427C773.163 143.382 771.135 144.984 768.386 146.206L768.792 147.12ZM775.352 142L776.152 142.6C777.897 140.273 778.752 137.496 778.752 134.32H777.752H776.752C776.752 137.118 776.007 139.46 774.552 141.4L775.352 142ZM777.752 134.32H778.752C778.752 130.581 777.611 127.442 775.276 124.99L774.552 125.68L773.828 126.37C775.759 128.398 776.752 131.019 776.752 134.32H777.752ZM774.552 125.68L775.309 125.026C773.119 122.491 769.836 120.598 765.566 119.284L765.272 120.24L764.978 121.196C769.028 122.442 771.931 124.176 773.795 126.334L774.552 125.68ZM765.272 120.24L765.578 119.288L742.698 111.928L742.392 112.88L742.086 113.832L764.966 121.192L765.272 120.24ZM742.392 112.88L742.688 111.925C733.539 109.086 726.743 104.855 722.207 99.2883L721.432 99.92L720.657 100.552C725.507 106.505 732.685 110.914 742.095 113.835L742.392 112.88ZM721.432 99.92L722.207 99.2883C717.667 93.7158 715.392 87.1685 715.392 79.6H714.392H713.392C713.392 87.6049 715.811 94.6042 720.657 100.552L721.432 99.92ZM714.392 79.6H715.392C715.392 72.9423 717.002 67.105 720.197 62.0546L719.352 61.52L718.507 60.9853C715.089 66.3883 713.392 72.6044 713.392 79.6H714.392ZM719.352 61.52L720.189 62.0668C723.497 57.0022 728.046 53.0668 733.866 50.2608L733.432 49.36L732.998 48.4592C726.871 51.4132 722.034 55.5845 718.515 60.9732L719.352 61.52ZM733.432 49.36L733.873 50.2575C739.796 47.3477 746.575 45.88 754.232 45.88V44.88V43.88C746.315 43.88 739.227 45.399 732.991 48.4624L733.432 49.36ZM754.232 44.88V45.88C761.257 45.88 767.681 47.1376 773.518 49.6391L773.912 48.72L774.306 47.8008C768.196 45.1824 761.5 43.88 754.232 43.88V44.88ZM773.912 48.72L773.532 49.645C779.381 52.0473 784.382 55.4359 788.548 59.8096L789.272 59.12L789.996 58.4303C785.628 53.8441 780.389 50.2993 774.292 47.795L773.912 48.72ZM789.272 59.12L788.565 59.8271C792.831 64.093 796.005 69.1388 798.09 74.9763L799.032 74.64L799.974 74.3037C797.792 68.1946 794.46 62.8936 789.979 58.4129L789.272 59.12ZM799.032 74.64L798.624 73.7269L780.704 81.7269L781.112 82.64L781.52 83.5531L799.44 75.5531L799.032 74.64ZM781.112 82.64L782.043 82.2743C779.632 76.1392 775.995 71.3812 771.115 68.0538L770.552 68.88L769.989 69.7062C774.495 72.7788 777.898 77.1941 780.181 83.0056L781.112 82.64ZM770.552 68.88L771.128 68.0625C766.253 64.6277 760.608 62.92 754.232 62.92V63.92V64.92C760.229 64.92 765.464 66.5189 769.976 69.6975L770.552 68.88ZM754.232 63.92V62.92C750.487 62.92 747.14 63.5811 744.213 64.932L744.632 65.84L745.051 66.748C747.671 65.5389 750.723 64.92 754.232 64.92V63.92ZM744.632 65.84L744.242 64.919C741.315 66.1573 738.975 67.9746 737.258 70.3788L738.072 70.96L738.886 71.5412C740.368 69.4654 742.402 67.8694 745.022 66.761L744.632 65.84ZM738.072 70.96L737.253 70.3865C735.625 72.7118 734.832 75.4793 734.832 78.64H735.832H736.832C736.832 75.8273 737.532 73.4749 738.891 71.5335L738.072 70.96ZM735.832 78.64H734.832C734.832 82.1826 735.982 85.342 738.264 88.0802L739.032 87.44L739.8 86.7998C737.815 84.418 736.832 81.7107 736.832 78.64H735.832ZM739.032 87.44L738.277 88.0962C740.571 90.734 744.01 92.7328 748.49 94.1532L748.792 93.2L749.094 92.2468C744.827 90.8939 741.759 89.0527 739.786 86.7838L739.032 87.44ZM748.792 93.2L748.492 94.1541L770.412 101.034L770.712 100.08L771.011 99.1259L749.091 92.2459L748.792 93.2ZM770.712 100.08L770.402 101.031C779.787 104.089 786.698 108.275 791.235 113.533L791.992 112.88L792.749 112.227C787.899 106.605 780.624 102.258 771.022 99.1292L770.712 100.08ZM791.992 112.88L791.242 113.542C795.864 118.78 798.192 125.257 798.192 133.04H799.192H800.192C800.192 124.823 797.72 117.86 792.742 112.218L791.992 112.88ZM799.192 133.04H798.192C798.192 139.685 796.482 145.514 793.082 150.561L793.912 151.12L794.741 151.679C798.382 146.273 800.192 140.048 800.192 133.04H799.192ZM793.912 151.12L793.082 150.561C789.67 155.628 784.959 159.623 778.917 162.539L779.352 163.44L779.787 164.341C786.118 161.284 791.114 157.065 794.741 151.679L793.912 151.12ZM779.352 163.44L778.917 162.539C772.89 165.449 765.844 166.92 757.752 166.92V167.92V168.92C766.087 168.92 773.44 167.404 779.787 164.341L779.352 163.44ZM839.906 166H838.906V167H839.906V166ZM839.906 66H840.906V65H839.906V66ZM809.026 66H808.026V67H809.026V66ZM809.026 46.8V45.8H808.026V46.8H809.026ZM892.226 46.8H893.226V45.8H892.226V46.8ZM892.226 66V67H893.226V66H892.226ZM861.826 66V65H860.826V66H861.826ZM861.826 166V167H862.826V166H861.826ZM839.906 166H840.906V66H839.906H838.906V166H839.906ZM839.906 66V65H809.026V66V67H839.906V66ZM809.026 66H810.026V46.8H809.026H808.026V66H809.026ZM809.026 46.8V47.8H892.226V46.8V45.8H809.026V46.8ZM892.226 46.8H891.226V66H892.226H893.226V46.8H892.226ZM892.226 66V65H861.826V66V67H892.226V66ZM861.826 66H860.826V166H861.826H862.826V66H861.826ZM861.826 166V165H839.906V166V167H861.826V166ZM934.901 163.28L934.523 164.206L934.901 163.28ZM915.061 150.32L914.36 151.034L914.36 151.034L915.061 150.32ZM901.781 130.8L900.855 131.178L900.858 131.186L900.861 131.194L901.781 130.8ZM901.781 81.84L902.704 82.2227L902.704 82.2227L901.781 81.84ZM914.901 62.32L915.601 63.0338L915.601 63.0338L914.901 62.32ZM934.741 49.52L935.108 50.4503L935.119 50.4457L934.741 49.52ZM984.021 49.52L984.399 48.5942L984.399 48.5942L984.021 49.52ZM1003.86 62.48L1003.16 63.1938L1003.17 63.2006L1003.86 62.48ZM1016.98 81.84L1016.06 82.2228L1016.06 82.2339L1016.98 81.84ZM1016.98 130.8L1017.9 131.194L1017.9 131.189L1016.98 130.8ZM1003.7 150.32L1003 149.606L1003 149.606L1003.7 150.32ZM983.861 163.28L983.482 162.354L983.478 162.356L983.861 163.28ZM975.541 145.04L975.922 145.964L975.931 145.961L975.939 145.957L975.541 145.04ZM988.341 136.24L987.634 135.533L987.628 135.538L987.623 135.543L988.341 136.24ZM996.821 122.96L995.891 122.592L995.887 122.6L995.884 122.609L996.821 122.96ZM996.821 89.84L995.884 90.1911L995.889 90.203L995.894 90.2148L996.821 89.84ZM988.341 76.56L987.614 77.2466L987.623 77.257L987.634 77.2671L988.341 76.56ZM930.421 76.56L929.704 75.8629L929.703 75.8632L930.421 76.56ZM921.941 89.84L922.868 90.2148L922.87 90.208L921.941 89.84ZM921.941 122.96L922.87 122.592L922.87 122.592L921.941 122.96ZM930.421 136.24L929.703 136.937L929.708 136.942L929.714 136.947L930.421 136.24ZM943.381 145.04L942.982 145.957L942.99 145.961L942.999 145.964L943.381 145.04ZM959.381 167.92V166.92C950.755 166.92 942.724 165.395 935.279 162.354L934.901 163.28L934.523 164.206C942.224 167.351 950.513 168.92 959.381 168.92V167.92ZM934.901 163.28L935.279 162.354C927.822 159.308 921.319 155.059 915.761 149.606L915.061 150.32L914.36 151.034C920.109 156.674 926.833 161.065 934.523 164.206L934.901 163.28ZM915.061 150.32L915.761 149.606C910.203 144.153 905.85 137.756 902.7 130.406L901.781 130.8L900.861 131.194C904.112 138.777 908.611 145.393 914.36 151.034L915.061 150.32ZM901.781 130.8L902.706 130.422C899.665 122.977 898.141 114.946 898.141 106.32H897.141H896.141C896.141 115.187 897.709 123.477 900.855 131.178L901.781 130.8ZM897.141 106.32H898.141C898.141 97.5854 899.666 89.5569 902.704 82.2227L901.781 81.84L900.857 81.4573C897.709 89.0564 896.141 97.3479 896.141 106.32H897.141ZM901.781 81.84L902.704 82.2227C905.747 74.8777 910.046 68.4843 915.601 63.0338L914.901 62.32L914.2 61.6062C908.449 67.249 904.001 73.8689 900.857 81.4573L901.781 81.84ZM914.901 62.32L915.601 63.0338C921.156 57.5835 927.655 53.3892 935.107 50.4503L934.741 49.52L934.374 48.5897C926.679 51.6241 919.952 55.9631 914.2 61.6062L914.901 62.32ZM934.741 49.52L935.119 50.4457C942.562 47.4053 950.646 45.88 959.381 45.88V44.88V43.88C950.408 43.88 942.065 45.448 934.363 48.5942L934.741 49.52ZM959.381 44.88V45.88C968.115 45.88 976.199 47.4053 983.643 50.4457L984.021 49.52L984.399 48.5942C976.696 45.448 968.353 43.88 959.381 43.88V44.88ZM984.021 49.52L983.643 50.4457C991.1 53.4917 997.603 57.741 1003.16 63.1938L1003.86 62.48L1004.56 61.7662C998.812 56.1256 992.088 51.735 984.399 48.5942L984.021 49.52ZM1003.86 62.48L1003.17 63.2006C1008.72 68.5421 1013.01 74.8794 1016.06 82.2227L1016.98 81.84L1017.9 81.4573C1014.76 73.8672 1010.31 67.2979 1004.55 61.7594L1003.86 62.48ZM1016.98 81.84L1016.06 82.2339C1019.2 89.5653 1020.78 97.5898 1020.78 106.32H1021.78H1022.78C1022.78 97.3435 1021.16 89.048 1017.9 81.4461L1016.98 81.84ZM1021.78 106.32H1020.78C1020.78 114.942 1019.2 122.968 1016.06 130.411L1016.98 130.8L1017.9 131.189C1021.16 123.485 1022.78 115.192 1022.78 106.32H1021.78ZM1016.98 130.8L1016.06 130.406C1012.91 137.756 1008.56 144.153 1003 149.606L1003.7 150.32L1004.4 151.034C1010.15 145.393 1014.65 138.777 1017.9 131.194L1016.98 130.8ZM1003.7 150.32L1003 149.606C997.443 155.059 990.94 159.308 983.483 162.354L983.861 163.28L984.239 164.206C991.928 161.065 998.652 156.674 1004.4 151.034L1003.7 150.32ZM983.861 163.28L983.478 162.356C976.144 165.395 968.115 166.92 959.381 166.92V167.92V168.92C968.353 168.92 976.644 167.352 984.243 164.204L983.861 163.28ZM959.381 148.08V149.08C965.364 149.08 970.883 148.046 975.922 145.964L975.541 145.04L975.159 144.116C970.385 146.087 965.13 147.08 959.381 147.08V148.08ZM975.541 145.04L975.939 145.957C980.962 143.773 985.338 140.766 989.058 136.937L988.341 136.24L987.623 135.543C984.09 139.18 979.932 142.04 975.142 144.123L975.541 145.04ZM988.341 136.24L989.048 136.947C992.886 133.109 995.789 128.56 997.757 123.311L996.821 122.96L995.884 122.609C994.013 127.6 991.262 131.904 987.634 135.533L988.341 136.24ZM996.821 122.96L997.75 123.328C999.827 118.081 1000.86 112.409 1000.86 106.32H999.861H998.861C998.861 112.178 997.867 117.599 995.891 122.592L996.821 122.96ZM999.861 106.32H1000.86C1000.86 100.232 999.827 94.6095 997.748 89.4652L996.821 89.84L995.894 90.2148C997.867 95.0972 998.861 100.462 998.861 106.32H999.861ZM996.821 89.84L997.757 89.4889C995.789 84.2401 992.886 79.6908 989.048 75.8529L988.341 76.56L987.634 77.2671C991.262 80.8959 994.013 85.1999 995.884 90.1911L996.821 89.84ZM988.341 76.56L989.068 75.8734C985.343 71.9301 980.959 68.9161 975.922 66.8357L975.541 67.76L975.159 68.6843C979.936 70.6573 984.084 73.5099 987.614 77.2466L988.341 76.56ZM975.541 67.76L975.922 66.8357C970.883 64.7541 965.364 63.72 959.381 63.72V64.72V65.72C965.13 65.72 970.385 66.7126 975.159 68.6843L975.541 67.76ZM959.381 64.72V63.72C953.501 63.72 948.037 64.755 942.999 66.8357L943.381 67.76L943.762 68.6843C948.538 66.7117 953.74 65.72 959.381 65.72V64.72ZM943.381 67.76L942.999 66.8357C937.965 68.9149 933.531 71.926 929.704 75.8629L930.421 76.56L931.138 77.2571C934.777 73.514 938.983 70.6584 943.762 68.6843L943.381 67.76ZM930.421 76.56L929.703 75.8632C925.98 79.6965 923.083 84.2366 921.011 89.472L921.941 89.84L922.87 90.208C924.851 85.2033 927.608 80.8902 931.138 77.2568L930.421 76.56ZM921.941 89.84L921.014 89.4652C918.934 94.6095 917.901 100.232 917.901 106.32H918.901H919.901C919.901 100.462 920.894 95.0972 922.868 90.2148L921.941 89.84ZM918.901 106.32H917.901C917.901 112.409 918.934 118.081 921.011 123.328L921.941 122.96L922.87 122.592C920.894 117.599 919.901 112.178 919.901 106.32H918.901ZM921.941 122.96L921.011 123.328C923.083 128.563 925.98 133.104 929.703 136.937L930.421 136.24L931.138 135.543C927.608 131.91 924.851 127.597 922.87 122.592L921.941 122.96ZM930.421 136.24L929.714 136.947C933.537 140.77 937.962 143.774 942.982 145.957L943.381 145.04L943.779 144.123C938.986 142.039 934.771 139.176 931.128 135.533L930.421 136.24ZM943.381 145.04L942.999 145.964C948.037 148.045 953.501 149.08 959.381 149.08V148.08V147.08C953.74 147.08 948.538 146.088 943.762 144.116L943.381 145.04ZM1041.13 166H1040.13V167H1041.13V166ZM1041.13 46.8V45.8H1040.13V46.8H1041.13ZM1061.93 46.8L1062.73 46.2072L1062.43 45.8H1061.93V46.8ZM1106.57 107.44V108.44H1108.55L1107.37 106.847L1106.57 107.44ZM1096.65 107.44L1095.84 106.856L1094.7 108.44H1096.65V107.44ZM1140.33 46.8V45.8H1139.82L1139.52 46.2155L1140.33 46.8ZM1161.13 46.8H1162.13V45.8H1161.13V46.8ZM1161.13 166V167H1162.13V166H1161.13ZM1139.21 166H1138.21V167H1139.21V166ZM1139.21 71.6L1139.45 70.6288L1138.21 70.3251V71.6H1139.21ZM1147.69 73.68L1148.49 74.2803L1149.4 73.0695L1147.93 72.7088L1147.69 73.68ZM1102.41 134V135H1102.91L1103.21 134.6L1102.41 134ZM1099.85 134L1099.04 134.591L1099.34 135H1099.85V134ZM1055.69 73.68L1055.41 72.7193L1054.04 73.1163L1054.88 74.2707L1055.69 73.68ZM1062.89 71.6H1063.89V70.2702L1062.61 70.6393L1062.89 71.6ZM1062.89 166V167H1063.89V166H1062.89ZM1041.13 166H1042.13V46.8H1041.13H1040.13V166H1041.13ZM1041.13 46.8V47.8H1061.93V46.8V45.8H1041.13V46.8ZM1061.93 46.8L1061.12 47.3928L1105.76 108.033L1106.57 107.44L1107.37 106.847L1062.73 46.2072L1061.93 46.8ZM1106.57 107.44V106.44H1096.65V107.44V108.44H1106.57V107.44ZM1096.65 107.44L1097.46 108.024L1141.14 47.3845L1140.33 46.8L1139.52 46.2155L1095.84 106.856L1096.65 107.44ZM1140.33 46.8V47.8H1161.13V46.8V45.8H1140.33V46.8ZM1161.13 46.8H1160.13V166H1161.13H1162.13V46.8H1161.13ZM1161.13 166V165H1139.21V166V167H1161.13V166ZM1139.21 166H1140.21V71.6H1139.21H1138.21V166H1139.21ZM1139.21 71.6L1138.97 72.5712L1147.45 74.6512L1147.69 73.68L1147.93 72.7088L1139.45 70.6288L1139.21 71.6ZM1147.69 73.68L1146.89 73.0797L1101.61 133.4L1102.41 134L1103.21 134.6L1148.49 74.2803L1147.69 73.68ZM1102.41 134V133H1099.85V134V135H1102.41V134ZM1099.85 134L1100.66 133.409L1056.5 73.0893L1055.69 73.68L1054.88 74.2707L1099.04 134.591L1099.85 134ZM1055.69 73.68L1055.97 74.6407L1063.17 72.5607L1062.89 71.6L1062.61 70.6393L1055.41 72.7193L1055.69 73.68ZM1062.89 71.6H1061.89V166H1062.89H1063.89V71.6H1062.89ZM1062.89 166V165H1041.13V166V167H1062.89V166ZM1183.94 166H1182.94V167H1183.94V166ZM1183.94 46.8V45.8H1182.94V46.8H1183.94ZM1205.7 46.8H1206.7V45.8H1205.7V46.8ZM1205.7 166V167H1206.7V166H1205.7ZM1183.94 166H1184.94V46.8H1183.94H1182.94V166H1183.94ZM1183.94 46.8V47.8H1205.7V46.8V45.8H1183.94V46.8ZM1205.7 46.8H1204.7V166H1205.7H1206.7V46.8H1205.7ZM1205.7 166V165H1183.94V166V167H1205.7V166ZM1219.35 166H1218.35V167H1219.35V166ZM1219.35 148.88L1218.53 148.308L1218.35 148.566V148.88H1219.35ZM1277.11 66L1277.93 66.5718L1279.03 65H1277.11V66ZM1222.71 66H1221.71V67H1222.71V66ZM1222.71 46.8V45.8H1221.71V46.8H1222.71ZM1304.79 46.8H1305.79V45.8H1304.79V46.8ZM1304.79 63.92L1305.61 64.4907L1305.79 64.2334V63.92H1304.79ZM1247.19 146.8L1246.37 146.229L1245.28 147.8H1247.19V146.8ZM1306.39 146.8H1307.39V145.8H1306.39V146.8ZM1306.39 166V167H1307.39V166H1306.39ZM1219.35 166H1220.35V148.88H1219.35H1218.35V166H1219.35ZM1219.35 148.88L1220.17 149.452L1277.93 66.5718L1277.11 66L1276.29 65.4282L1218.53 148.308L1219.35 148.88ZM1277.11 66V65H1222.71V66V67H1277.11V66ZM1222.71 66H1223.71V46.8H1222.71H1221.71V66H1222.71ZM1222.71 46.8V47.8H1304.79V46.8V45.8H1222.71V46.8ZM1304.79 46.8H1303.79V63.92H1304.79H1305.79V46.8H1304.79ZM1304.79 63.92L1303.97 63.3493L1246.37 146.229L1247.19 146.8L1248.01 147.371L1305.61 64.4907L1304.79 63.92ZM1247.19 146.8V147.8H1306.39V146.8V145.8H1247.19V146.8ZM1306.39 146.8H1305.39V166H1306.39H1307.39V146.8H1306.39ZM1306.39 166V165H1219.35V166V167H1306.39V166ZM1310.28 166L1309.33 165.674L1308.87 167H1310.28V166ZM1351.4 46.8V45.8H1350.68L1350.45 46.4739L1351.4 46.8ZM1379.56 46.8L1380.5 46.4739L1380.27 45.8H1379.56V46.8ZM1420.68 166V167H1422.08L1421.62 165.674L1420.68 166ZM1397 166L1396.05 166.314L1396.27 167H1397V166ZM1388.52 140.4L1389.46 140.086L1389.24 139.4H1388.52V140.4ZM1342.44 140.4V139.4H1341.72L1341.49 140.08L1342.44 140.4ZM1333.8 166V167H1334.51L1334.74 166.32L1333.8 166ZM1348.68 121.2L1347.73 120.883L1347.29 122.2H1348.68V121.2ZM1382.28 121.2V122.2H1383.66L1383.22 120.883L1382.28 121.2ZM1362.44 61.84V60.84H1361.05L1361.49 62.157L1362.44 61.84ZM1368.52 61.84L1369.46 62.157L1369.9 60.84H1368.52V61.84ZM1310.28 166L1311.22 166.326L1352.34 47.1261L1351.4 46.8L1350.45 46.4739L1309.33 165.674L1310.28 166ZM1351.4 46.8V47.8H1379.56V46.8V45.8H1351.4V46.8ZM1379.56 46.8L1378.61 47.1261L1419.73 166.326L1420.68 166L1421.62 165.674L1380.5 46.4739L1379.56 46.8ZM1420.68 166V165H1397V166V167H1420.68V166ZM1397 166L1397.94 165.686L1389.46 140.086L1388.52 140.4L1387.57 140.714L1396.05 166.314L1397 166ZM1388.52 140.4V139.4H1342.44V140.4V141.4H1388.52V140.4ZM1342.44 140.4L1341.49 140.08L1332.85 165.68L1333.8 166L1334.74 166.32L1343.38 140.72L1342.44 140.4ZM1333.8 166V165H1310.28V166V167H1333.8V166ZM1348.68 121.2V122.2H1382.28V121.2V120.2H1348.68V121.2ZM1382.28 121.2L1383.22 120.883L1363.38 61.523L1362.44 61.84L1361.49 62.157L1381.33 121.517L1382.28 121.2ZM1362.44 61.84V62.84H1368.52V61.84V60.84H1362.44V61.84ZM1368.52 61.84L1367.57 61.523L1347.73 120.883L1348.68 121.2L1349.62 121.517L1369.46 62.157L1368.52 61.84ZM1447.09 166H1446.09V167H1447.09V166ZM1447.09 66H1448.09V65H1447.09V66ZM1416.21 66H1415.21V67H1416.21V66ZM1416.21 46.8V45.8H1415.21V46.8H1416.21ZM1499.41 46.8H1500.41V45.8H1499.41V46.8ZM1499.41 66V67H1500.41V66H1499.41ZM1469.01 66V65H1468.01V66H1469.01ZM1469.01 166V167H1470.01V166H1469.01ZM1447.09 166H1448.09V66H1447.09H1446.09V166H1447.09ZM1447.09 66V65H1416.21V66V67H1447.09V66ZM1416.21 66H1417.21V46.8H1416.21H1415.21V66H1416.21ZM1416.21 46.8V47.8H1499.41V46.8V45.8H1416.21V46.8ZM1499.41 46.8H1498.41V66H1499.41H1500.41V46.8H1499.41ZM1499.41 66V65H1469.01V66V67H1499.41V66ZM1469.01 66H1468.01V166H1469.01H1470.01V66H1469.01ZM1469.01 166V165H1447.09V166V167H1469.01V166ZM1512.69 166H1511.69V167H1512.69V166ZM1512.69 46.8V45.8H1511.69V46.8H1512.69ZM1534.45 46.8H1535.45V45.8H1534.45V46.8ZM1534.45 166V167H1535.45V166H1534.45ZM1512.69 166H1513.69V46.8H1512.69H1511.69V166H1512.69ZM1512.69 46.8V47.8H1534.45V46.8V45.8H1512.69V46.8ZM1534.45 46.8H1533.45V166H1534.45H1535.45V46.8H1534.45ZM1534.45 166V165H1512.69V166V167H1534.45V166ZM1591.62 163.28L1591.24 164.206L1591.62 163.28ZM1571.78 150.32L1571.08 151.034L1571.08 151.034L1571.78 150.32ZM1558.5 130.8L1557.57 131.178L1557.58 131.186L1557.58 131.194L1558.5 130.8ZM1558.5 81.84L1559.42 82.2227L1559.42 82.2227L1558.5 81.84ZM1571.62 62.32L1572.32 63.0338L1572.32 63.0338L1571.62 62.32ZM1591.46 49.52L1591.83 50.4503L1591.84 50.4457L1591.46 49.52ZM1640.74 49.52L1641.12 48.5942L1641.12 48.5942L1640.74 49.52ZM1660.58 62.48L1659.88 63.1938L1659.89 63.2006L1660.58 62.48ZM1673.7 81.84L1672.78 82.2228L1672.78 82.2339L1673.7 81.84ZM1673.7 130.8L1674.62 131.194L1674.62 131.189L1673.7 130.8ZM1660.42 150.32L1659.72 149.606L1659.72 149.606L1660.42 150.32ZM1640.58 163.28L1640.2 162.354L1640.2 162.356L1640.58 163.28ZM1632.26 145.04L1632.64 145.964L1632.65 145.961L1632.66 145.957L1632.26 145.04ZM1645.06 136.24L1644.35 135.533L1644.35 135.538L1644.34 135.543L1645.06 136.24ZM1653.54 122.96L1652.61 122.592L1652.61 122.6L1652.6 122.609L1653.54 122.96ZM1653.54 89.84L1652.6 90.1911L1652.61 90.203L1652.61 90.2148L1653.54 89.84ZM1645.06 76.56L1644.33 77.2466L1644.34 77.257L1644.35 77.2671L1645.06 76.56ZM1587.14 76.56L1586.42 75.8629L1586.42 75.8632L1587.14 76.56ZM1578.66 89.84L1579.59 90.2148L1579.59 90.208L1578.66 89.84ZM1578.66 122.96L1579.59 122.592L1579.59 122.592L1578.66 122.96ZM1587.14 136.24L1586.42 136.937L1586.43 136.942L1586.43 136.947L1587.14 136.24ZM1600.1 145.04L1599.7 145.957L1599.71 145.961L1599.72 145.964L1600.1 145.04ZM1616.1 167.92V166.92C1607.47 166.92 1599.44 165.395 1592 162.354L1591.62 163.28L1591.24 164.206C1598.94 167.351 1607.23 168.92 1616.1 168.92V167.92ZM1591.62 163.28L1592 162.354C1584.54 159.308 1578.04 155.059 1572.48 149.606L1571.78 150.32L1571.08 151.034C1576.83 156.674 1583.55 161.065 1591.24 164.206L1591.62 163.28ZM1571.78 150.32L1572.48 149.606C1566.92 144.153 1562.57 137.756 1559.42 130.406L1558.5 130.8L1557.58 131.194C1560.83 138.777 1565.33 145.393 1571.08 151.034L1571.78 150.32ZM1558.5 130.8L1559.43 130.422C1556.38 122.977 1554.86 114.946 1554.86 106.32H1553.86H1552.86C1552.86 115.187 1554.43 123.477 1557.57 131.178L1558.5 130.8ZM1553.86 106.32H1554.86C1554.86 97.5854 1556.38 89.5569 1559.42 82.2227L1558.5 81.84L1557.58 81.4573C1554.43 89.0564 1552.86 97.3479 1552.86 106.32H1553.86ZM1558.5 81.84L1559.42 82.2227C1562.47 74.8777 1566.76 68.4843 1572.32 63.0338L1571.62 62.32L1570.92 61.6062C1565.17 67.249 1560.72 73.8689 1557.58 81.4573L1558.5 81.84ZM1571.62 62.32L1572.32 63.0338C1577.87 57.5835 1584.37 53.3892 1591.83 50.4503L1591.46 49.52L1591.09 48.5897C1583.4 51.6241 1576.67 55.9631 1570.92 61.6062L1571.62 62.32ZM1591.46 49.52L1591.84 50.4457C1599.28 47.4053 1607.36 45.88 1616.1 45.88V44.88V43.88C1607.13 43.88 1598.78 45.448 1591.08 48.5942L1591.46 49.52ZM1616.1 44.88V45.88C1624.83 45.88 1632.92 47.4053 1640.36 50.4457L1640.74 49.52L1641.12 48.5942C1633.41 45.448 1625.07 43.88 1616.1 43.88V44.88ZM1640.74 49.52L1640.36 50.4457C1647.82 53.4917 1654.32 57.741 1659.88 63.1938L1660.58 62.48L1661.28 61.7662C1655.53 56.1256 1648.81 51.735 1641.12 48.5942L1640.74 49.52ZM1660.58 62.48L1659.89 63.2006C1665.44 68.5421 1669.73 74.8794 1672.78 82.2227L1673.7 81.84L1674.62 81.4573C1671.48 73.8672 1667.03 67.2979 1661.27 61.7594L1660.58 62.48ZM1673.7 81.84L1672.78 82.2339C1675.92 89.5653 1677.5 97.5898 1677.5 106.32H1678.5H1679.5C1679.5 97.3435 1677.88 89.048 1674.62 81.4461L1673.7 81.84ZM1678.5 106.32H1677.5C1677.5 114.942 1675.92 122.968 1672.78 130.411L1673.7 130.8L1674.62 131.189C1677.88 123.485 1679.5 115.192 1679.5 106.32H1678.5ZM1673.7 130.8L1672.78 130.406C1669.63 137.756 1665.28 144.153 1659.72 149.606L1660.42 150.32L1661.12 151.034C1666.87 145.393 1671.37 138.777 1674.62 131.194L1673.7 130.8ZM1660.42 150.32L1659.72 149.606C1654.16 155.059 1647.66 159.308 1640.2 162.354L1640.58 163.28L1640.96 164.206C1648.65 161.065 1655.37 156.674 1661.12 151.034L1660.42 150.32ZM1640.58 163.28L1640.2 162.356C1632.86 165.395 1624.83 166.92 1616.1 166.92V167.92V168.92C1625.07 168.92 1633.36 167.352 1640.96 164.204L1640.58 163.28ZM1616.1 148.08V149.08C1622.08 149.08 1627.6 148.046 1632.64 145.964L1632.26 145.04L1631.88 144.116C1627.1 146.087 1621.85 147.08 1616.1 147.08V148.08ZM1632.26 145.04L1632.66 145.957C1637.68 143.773 1642.06 140.766 1645.78 136.937L1645.06 136.24L1644.34 135.543C1640.81 139.18 1636.65 142.04 1631.86 144.123L1632.26 145.04ZM1645.06 136.24L1645.77 136.947C1649.6 133.109 1652.51 128.56 1654.48 123.311L1653.54 122.96L1652.6 122.609C1650.73 127.6 1647.98 131.904 1644.35 135.533L1645.06 136.24ZM1653.54 122.96L1654.47 123.328C1656.55 118.081 1657.58 112.409 1657.58 106.32H1656.58H1655.58C1655.58 112.178 1654.59 117.599 1652.61 122.592L1653.54 122.96ZM1656.58 106.32H1657.58C1657.58 100.232 1656.55 94.6095 1654.47 89.4652L1653.54 89.84L1652.61 90.2148C1654.59 95.0972 1655.58 100.462 1655.58 106.32H1656.58ZM1653.54 89.84L1654.48 89.4889C1652.51 84.2401 1649.6 79.6908 1645.77 75.8529L1645.06 76.56L1644.35 77.2671C1647.98 80.8959 1650.73 85.1999 1652.6 90.1911L1653.54 89.84ZM1645.06 76.56L1645.79 75.8734C1642.06 71.9301 1637.68 68.9161 1632.64 66.8357L1632.26 67.76L1631.88 68.6843C1636.65 70.6573 1640.8 73.5099 1644.33 77.2466L1645.06 76.56ZM1632.26 67.76L1632.64 66.8357C1627.6 64.7541 1622.08 63.72 1616.1 63.72V64.72V65.72C1621.85 65.72 1627.1 66.7126 1631.88 68.6843L1632.26 67.76ZM1616.1 64.72V63.72C1610.22 63.72 1604.76 64.755 1599.72 66.8357L1600.1 67.76L1600.48 68.6843C1605.26 66.7117 1610.46 65.72 1616.1 65.72V64.72ZM1600.1 67.76L1599.72 66.8357C1594.68 68.9149 1590.25 71.926 1586.42 75.8629L1587.14 76.56L1587.86 77.2571C1591.5 73.514 1595.7 70.6584 1600.48 68.6843L1600.1 67.76ZM1587.14 76.56L1586.42 75.8632C1582.7 79.6965 1579.8 84.2366 1577.73 89.472L1578.66 89.84L1579.59 90.208C1581.57 85.2033 1584.33 80.8902 1587.86 77.2568L1587.14 76.56ZM1578.66 89.84L1577.73 89.4652C1575.65 94.6095 1574.62 100.232 1574.62 106.32H1575.62H1576.62C1576.62 100.462 1577.61 95.0972 1579.59 90.2148L1578.66 89.84ZM1575.62 106.32H1574.62C1574.62 112.409 1575.65 118.081 1577.73 123.328L1578.66 122.96L1579.59 122.592C1577.61 117.599 1576.62 112.178 1576.62 106.32H1575.62ZM1578.66 122.96L1577.73 123.328C1579.8 128.563 1582.7 133.104 1586.42 136.937L1587.14 136.24L1587.86 135.543C1584.33 131.91 1581.57 127.597 1579.59 122.592L1578.66 122.96ZM1587.14 136.24L1586.43 136.947C1590.26 140.77 1594.68 143.774 1599.7 145.957L1600.1 145.04L1600.5 144.123C1595.7 142.039 1591.49 139.176 1587.85 135.533L1587.14 136.24ZM1600.1 145.04L1599.72 145.964C1604.76 148.045 1610.22 149.08 1616.1 149.08V148.08V147.08C1610.46 147.08 1605.26 146.088 1600.48 144.116L1600.1 145.04ZM1697.85 166H1696.85V167H1697.85V166ZM1697.85 46.8V45.8H1696.85V46.8H1697.85ZM1714.81 46.8L1715.61 46.2037L1715.31 45.8H1714.81V46.8ZM1780.41 135.12L1780.6 136.101L1782.15 135.791L1781.21 134.524L1780.41 135.12ZM1771.61 136.88H1770.61V138.1L1771.8 137.861L1771.61 136.88ZM1771.61 46.8V45.8H1770.61V46.8H1771.61ZM1793.37 46.8H1794.37V45.8H1793.37V46.8ZM1793.37 166V167H1794.37V166H1793.37ZM1776.25 166L1775.44 166.588L1775.74 167H1776.25V166ZM1711.61 77.04L1711.39 76.0633L1709.9 76.3917L1710.8 77.6278L1711.61 77.04ZM1719.61 75.28H1720.61V74.0361L1719.39 74.3034L1719.61 75.28ZM1719.61 166V167H1720.61V166H1719.61ZM1697.85 166H1698.85V46.8H1697.85H1696.85V166H1697.85ZM1697.85 46.8V47.8H1714.81V46.8V45.8H1697.85V46.8ZM1714.81 46.8L1714.01 47.3963L1779.61 135.716L1780.41 135.12L1781.21 134.524L1715.61 46.2037L1714.81 46.8ZM1780.41 135.12L1780.21 134.139L1771.41 135.899L1771.61 136.88L1771.8 137.861L1780.6 136.101L1780.41 135.12ZM1771.61 136.88H1772.61V46.8H1771.61H1770.61V136.88H1771.61ZM1771.61 46.8V47.8H1793.37V46.8V45.8H1771.61V46.8ZM1793.37 46.8H1792.37V166H1793.37H1794.37V46.8H1793.37ZM1793.37 166V165H1776.25V166V167H1793.37V166ZM1776.25 166L1777.06 165.412L1712.42 76.4522L1711.61 77.04L1710.8 77.6278L1775.44 166.588L1776.25 166ZM1711.61 77.04L1711.82 78.0166L1719.82 76.2566L1719.61 75.28L1719.39 74.3034L1711.39 76.0633L1711.61 77.04ZM1719.61 75.28H1718.61V166H1719.61H1720.61V75.28H1719.61ZM1719.61 166V165H1697.85V166V167H1719.61V166Z" fill="white" mask="url(#path-1-outside-1_380_152)"/>
</g>
<defs>
<clipPath id="clip0_380_152">
<rect width="1920" height="202" fill="white"/>
</clipPath>
</defs>
</svg>
