<svg width="1483" height="1181" viewBox="0 0 1483 1181" fill="none" xmlns="http://www.w3.org/2000/svg">
<g clip-path="url(#clip0_380_142)">
<g opacity="0.4" filter="url(#filter0_f_380_142)">
<path d="M432.572 551.723C428.797 554.931 346.437 627.159 364.617 721.431C382.186 812.501 479.891 853.173 541.96 860.028C638.586 870.705 713.14 806.524 746.057 778.191C776.504 751.864 797.843 723.695 836.414 672.768C892.914 598.185 898.341 572.836 935.776 557.584C984.544 537.712 1040.84 554.031 1054.4 557.962C1096.63 570.202 1094.56 584.089 1126.99 587.793C1181.43 594.013 1229.17 559.667 1246.71 547.048C1260.81 536.907 1275.3 526.474 1288.18 508.711C1324.97 457.923 1323.89 381.054 1293.85 324.648C1259.69 260.507 1196.55 238.701 1159.9 226.044C1135.76 217.708 1074.99 200.328 1001.06 216.925C923.119 234.423 839.045 287.776 803.527 365.665C789.569 396.273 789.419 416.841 764.395 453.284C746.256 479.702 722.232 514.704 682.739 527.005C629.72 543.527 601.065 502.861 535.148 507.699C489.426 511.062 454.084 534.233 432.578 551.72L432.572 551.723Z" fill="#FF4A4D"/>
</g>
</g>
<defs>
<filter id="filter0_f_380_142" x="98" y="-54" width="1482.1" height="1179.21" filterUnits="userSpaceOnUse" color-interpolation-filters="sRGB">
<feFlood flood-opacity="0" result="BackgroundImageFix"/>
<feBlend mode="normal" in="SourceGraphic" in2="BackgroundImageFix" result="shape"/>
<feGaussianBlur stdDeviation="132" result="effect1_foregroundBlur_380_142"/>
</filter>
<clipPath id="clip0_380_142">
<rect width="1483" height="1181" fill="white"/>
</clipPath>
</defs>
</svg>
