<svg width="1483" height="1181" viewBox="0 0 1483 1181" fill="none" xmlns="http://www.w3.org/2000/svg">
<g clip-path="url(#clip0_487_1878)">
<g opacity="0.32" filter="url(#filter0_f_487_1878)">
<path d="M334.753 606.713C330.978 609.921 248.618 682.149 266.798 776.421C284.367 867.491 382.072 908.163 444.141 915.018C540.767 925.695 615.321 861.514 648.238 833.181C678.685 806.854 700.024 778.684 738.595 727.758C795.095 653.175 800.522 627.826 837.957 612.574C886.724 592.702 943.018 609.021 956.585 612.952C998.806 625.192 996.742 639.079 1029.17 642.783C1083.61 649.003 1131.35 614.657 1148.89 602.038C1162.99 591.897 1177.48 581.464 1190.36 563.701C1227.15 512.913 1226.07 436.044 1196.03 379.638C1161.87 315.497 1098.73 293.691 1062.08 281.034C1037.94 272.698 977.174 255.318 903.241 271.915C825.3 289.413 741.226 342.766 705.708 420.655C691.75 451.263 691.599 471.831 666.576 508.274C648.437 534.692 624.413 569.694 584.92 581.995C531.901 598.517 503.246 557.851 437.329 562.689C391.607 566.051 356.265 589.223 334.759 606.71L334.753 606.713Z" fill="#FF4A4D"/>
</g>
</g>
<defs>
<filter id="filter0_f_487_1878" x="0.180664" y="0.989746" width="1482.1" height="1179.21" filterUnits="userSpaceOnUse" color-interpolation-filters="sRGB">
<feFlood flood-opacity="0" result="BackgroundImageFix"/>
<feBlend mode="normal" in="SourceGraphic" in2="BackgroundImageFix" result="shape"/>
<feGaussianBlur stdDeviation="132" result="effect1_foregroundBlur_487_1878"/>
</filter>
<clipPath id="clip0_487_1878">
<rect width="1483" height="1181" fill="white"/>
</clipPath>
</defs>
</svg>
